<svg width="24" height="20" viewBox="0 0 24 20" fill="none" xmlns="http://www.w3.org/2000/svg">
<path d="M6.13996 0C4.56616 0 2.9889 0.601967 1.79284 1.80894C-0.599159 4.22291 -0.596067 8.13501 1.79284 10.5506L10.8565 19.7278C10.9411 19.814 11.0421 19.8825 11.1535 19.9292C11.2649 19.9759 11.3845 20 11.5052 20C11.626 20 11.7456 19.9759 11.857 19.9292C11.9684 19.8825 12.0694 19.814 12.154 19.7278C15.1795 16.6746 18.2016 13.6227 21.2271 10.5695C23.6192 8.15553 23.6192 4.23237 21.2271 1.81841C18.835 -0.595551 14.9344 -0.595578 12.5423 1.81841L11.51 2.85074L10.4777 1.80894C9.2816 0.601961 7.7138 0 6.13996 0V0ZM6.13996 1.79947C7.23971 1.79947 8.33703 2.22713 9.18962 3.08751L10.866 4.79227C10.9506 4.87845 11.0516 4.94691 11.1629 4.99364C11.2743 5.04037 11.3939 5.06443 11.5147 5.06443C11.6355 5.06443 11.7551 5.04037 11.8665 4.99364C11.9778 4.94691 12.0788 4.87845 12.1634 4.79227L13.8303 3.10645C15.5355 1.38567 18.2339 1.3857 19.9391 3.10645C21.6442 4.82721 21.6442 7.56071 19.9391 9.28147C17.1302 12.116 14.3188 14.9612 11.51 17.7958L3.08088 9.27202C1.37673 7.54883 1.37582 4.80826 3.08088 3.08751C3.93347 2.22713 5.04025 1.79947 6.13996 1.79947V1.79947Z" fill="#D92E6C"/>
</svg>
