<svg width="1299" height="103" viewBox="0 0 1299 103" fill="none" xmlns="http://www.w3.org/2000/svg">
<path d="M1358 1L1322.25 36.75C1302.51 56.4942 1270.49 56.4942 1250.75 36.75V36.75C1231.01 17.0058 1198.99 17.0058 1179.25 36.75V36.75C1159.51 56.4942 1127.49 56.4942 1107.75 36.75V36.75C1088.01 17.0058 1055.99 17.0058 1036.25 36.75V36.75C1016.51 56.4942 984.494 56.4942 964.75 36.75V36.75C945.006 17.0058 912.994 17.0058 893.25 36.75V36.75C873.506 56.4942 841.494 56.4942 821.75 36.75V36.75C802.006 17.0058 769.994 17.0058 750.25 36.75V36.75C730.506 56.4942 698.494 56.4942 678.75 36.75V36.75C659.006 17.0058 626.994 17.0058 607.25 36.75V36.75C587.506 56.4942 555.494 56.4942 535.75 36.75V36.75C516.006 17.0058 483.994 17.0058 464.25 36.75V36.75C444.506 56.4942 412.494 56.4942 392.75 36.75V36.75C373.006 17.0058 340.994 17.0058 321.25 36.75V36.75C301.506 56.4942 269.494 56.4942 249.75 36.75V36.75C230.006 17.0058 197.994 17.0058 178.25 36.75V36.75C158.506 56.4942 126.494 56.4942 106.75 36.75V36.75C87.0058 17.0058 54.9942 17.0058 35.25 36.75V36.75C15.5058 56.4942 -16.5058 56.4942 -36.25 36.75L-72 1" stroke="#D92E6C" stroke-opacity="0.2"/>
<path d="M1358 11L1322.25 46.75C1302.51 66.4942 1270.49 66.4942 1250.75 46.75V46.75C1231.01 27.0058 1198.99 27.0058 1179.25 46.75V46.75C1159.51 66.4942 1127.49 66.4942 1107.75 46.75V46.75C1088.01 27.0058 1055.99 27.0058 1036.25 46.75V46.75C1016.51 66.4942 984.494 66.4942 964.75 46.75V46.75C945.006 27.0058 912.994 27.0058 893.25 46.75V46.75C873.506 66.4942 841.494 66.4942 821.75 46.75V46.75C802.006 27.0058 769.994 27.0058 750.25 46.75V46.75C730.506 66.4942 698.494 66.4942 678.75 46.75V46.75C659.006 27.0058 626.994 27.0058 607.25 46.75V46.75C587.506 66.4942 555.494 66.4942 535.75 46.75V46.75C516.006 27.0058 483.994 27.0058 464.25 46.75V46.75C444.506 66.4942 412.494 66.4942 392.75 46.75V46.75C373.006 27.0058 340.994 27.0058 321.25 46.75V46.75C301.506 66.4942 269.494 66.4942 249.75 46.75V46.75C230.006 27.0058 197.994 27.0058 178.25 46.75V46.75C158.506 66.4942 126.494 66.4942 106.75 46.75V46.75C87.0058 27.0058 54.9942 27.0058 35.25 46.75V46.75C15.5058 66.4942 -16.5058 66.4942 -36.25 46.75L-72 11" stroke="#D92E6C" stroke-opacity="0.2"/>
<path d="M1358 21L1322.25 56.75C1302.51 76.4942 1270.49 76.4942 1250.75 56.75V56.75C1231.01 37.0058 1198.99 37.0058 1179.25 56.75V56.75C1159.51 76.4942 1127.49 76.4942 1107.75 56.75V56.75C1088.01 37.0058 1055.99 37.0058 1036.25 56.75V56.75C1016.51 76.4942 984.494 76.4942 964.75 56.75V56.75C945.006 37.0058 912.994 37.0058 893.25 56.75V56.75C873.506 76.4942 841.494 76.4942 821.75 56.75V56.75C802.006 37.0058 769.994 37.0058 750.25 56.75V56.75C730.506 76.4942 698.494 76.4942 678.75 56.75V56.75C659.006 37.0058 626.994 37.0058 607.25 56.75V56.75C587.506 76.4942 555.494 76.4942 535.75 56.75V56.75C516.006 37.0058 483.994 37.0058 464.25 56.75V56.75C444.506 76.4942 412.494 76.4942 392.75 56.75V56.75C373.006 37.0058 340.994 37.0058 321.25 56.75V56.75C301.506 76.4942 269.494 76.4942 249.75 56.75V56.75C230.006 37.0058 197.994 37.0058 178.25 56.75V56.75C158.506 76.4942 126.494 76.4942 106.75 56.75V56.75C87.0058 37.0058 54.9942 37.0058 35.25 56.75V56.75C15.5058 76.4942 -16.5058 76.4942 -36.25 56.75L-72 21" stroke="#D92E6C" stroke-opacity="0.2"/>
<path d="M1358 31L1322.25 66.75C1302.51 86.4942 1270.49 86.4942 1250.75 66.75V66.75C1231.01 47.0058 1198.99 47.0058 1179.25 66.75V66.75C1159.51 86.4942 1127.49 86.4942 1107.75 66.75V66.75C1088.01 47.0058 1055.99 47.0058 1036.25 66.75V66.75C1016.51 86.4942 984.494 86.4942 964.75 66.75V66.75C945.006 47.0058 912.994 47.0058 893.25 66.75V66.75C873.506 86.4942 841.494 86.4942 821.75 66.75V66.75C802.006 47.0058 769.994 47.0058 750.25 66.75V66.75C730.506 86.4942 698.494 86.4942 678.75 66.75V66.75C659.006 47.0058 626.994 47.0058 607.25 66.75V66.75C587.506 86.4942 555.494 86.4942 535.75 66.75V66.75C516.006 47.0058 483.994 47.0058 464.25 66.75V66.75C444.506 86.4942 412.494 86.4942 392.75 66.75V66.75C373.006 47.0058 340.994 47.0058 321.25 66.75V66.75C301.506 86.4942 269.494 86.4942 249.75 66.75V66.75C230.006 47.0058 197.994 47.0058 178.25 66.75V66.75C158.506 86.4942 126.494 86.4942 106.75 66.75V66.75C87.0058 47.0058 54.9942 47.0058 35.25 66.75V66.75C15.5058 86.4942 -16.5058 86.4942 -36.25 66.75L-72 31" stroke="#D92E6C" stroke-opacity="0.2"/>
</svg>