<svg width="118" height="118" viewBox="0 0 118 118" fill="none" xmlns="http://www.w3.org/2000/svg">
<path d="M59 84.5C73.0833 84.5 84.5 73.0833 84.5 59C84.5 44.9167 73.0833 33.5 59 33.5C44.9167 33.5 33.5 44.9167 33.5 59C33.5 73.0833 44.9167 84.5 59 84.5Z" fill="#EA4F87" fill-opacity="0.2" stroke="white"/>
<path d="M59 95.5C79.1584 95.5 95.5 79.1584 95.5 59C95.5 38.8416 79.1584 22.5 59 22.5C38.8416 22.5 22.5 38.8416 22.5 59C22.5 79.1584 38.8416 95.5 59 95.5Z" fill="#EA4F87" fill-opacity="0.2" stroke="white"/>
<path d="M59 106.5C85.2335 106.5 106.5 85.2335 106.5 59C106.5 32.7665 85.2335 11.5 59 11.5C32.7665 11.5 11.5 32.7665 11.5 59C11.5 85.2335 32.7665 106.5 59 106.5Z" fill="#EA4F87" fill-opacity="0.2" stroke="white"/>
<path d="M59 117.5C91.3087 117.5 117.5 91.3087 117.5 59C117.5 26.6913 91.3087 0.5 59 0.5C26.6913 0.5 0.5 26.6913 0.5 59C0.5 91.3087 26.6913 117.5 59 117.5Z" fill="#EA4F87" fill-opacity="0.2" stroke="white"/>
</svg>
